<svg xmlns="http://www.w3.org/2000/svg" viewBox="0 0 340.64 61.32"><defs><style>.cls-1{fill:#fff;}</style></defs><title>Asset 1</title><g id="Layer_2" data-name="Layer 2"><g id="Artwork"><path class="cls-1" d="M11.34,1.26l.42.42V32.34c0,11.34,6.3,16.8,14.28,16.8s14.28-5.46,14.28-16.8V1.68l.42-.42H51.66l.42.42V34c0,17.22-11.76,27.3-26,27.3S0,51.24,0,34V1.68l.42-.42Z"/><path class="cls-1" d="M74.15,1.26l.84.42,29.4,38.22V1.68l.42-.42h10.92l.42.42v58l-.42.42H104.39l-.84-.42L74.15,21.42V59.64l-.42.42H62.81l-.42-.42v-58l.42-.42Z"/><path class="cls-1" d="M132.48.84,140,8.4v.84l-7.56,7.56h-.84l-7.56-7.56V8.4L131.64.84Zm5,19.74.42.42V59.64l-.42.42H126.6l-.42-.42V21l.42-.42Z"/><path class="cls-1" d="M168,1.26c18.06,0,31.08,13.19,31.08,29.4s-13,29.4-31.08,29.4H148.27l-.42-.42v-58l.42-.42Zm-8.4,47H168c10.92,0,18.48-7.14,18.48-17.64S178.93,13,168,13h-8.4Z"/><path class="cls-1" d="M233.33,1.26l.42.42,22.26,58-.42.42h-13l-.42-.42L238,47.88H217l-4.2,11.76-.42.42h-13l-.42-.42,22.26-58,.42-.42Zm-12.6,34.86h13.44l-6.72-19.74Z"/><path class="cls-1" d="M261.54,1.26l.42.42L275.4,21.42,288.84,1.68l.42-.42H301l.42.42L281.28,33.6v26l-.42.42H269.94l-.42-.42v-26L249.36,1.68l.42-.42Z"/><path class="cls-1" d="M326.53,16a8.48,8.48,0,0,0-6.47-3.78c-2.94,0-4.2,1.68-4.2,4.2,0,6.72,24.78,6.72,24.78,26,0,10.08-8.4,18.9-19.74,18.9-8.82,0-16.8-4.62-19.74-13l9.66-6.47h.84c2.1,5.63,5.88,7.31,9.24,7.31,4.2,0,7.14-2.52,7.14-6.72,0-10.08-24.78-9.66-24.78-26,0-9.66,7.48-16.38,16.8-16.38,7.14,0,11.76,2.94,16.38,9.24L327.37,16Z"/></g></g></svg>